<?xml version="1.0" encoding="utf-8"?>
<!-- Generator: Adobe Illustrator 19.0.0, SVG Export Plug-In . SVG Version: 6.00 Build 0)  -->
<svg version="1.1" id="Layer_4" xmlns="http://www.w3.org/2000/svg" xmlns:xlink="http://www.w3.org/1999/xlink" x="0px" y="0px"
	 viewBox="0 0 515.9 309.7" style="enable-background:new 0 0 515.9 309.7;" xml:space="preserve">
<style type="text/css">
	.st0{fill:#FFFFFF;}
	.st1{fill:#02076E;}
	.st2{fill:#0064B6;}
	.st3{fill:#018462;}
	.st4{fill:none;stroke:#E90006;stroke-miterlimit:10;}
	.st5{fill:#C9283B;}
	.st6{fill:#0077E7;}
</style>
<path id="XMLID_52_" class="st0" d="M163.2,46c13.4-4.8,28.8-9.3,46-12.5c6.9-1.3,13.6-2.3,20-3c1.3-3.6,2.7-8.7,3-15
	c0.3-6.4-0.6-11.8-1.5-15.5c4.3,0.2,11.1,0.4,19.5,0.5c21.4,0.2,22.7-0.5,28.8,1.6c13.1,4.4,21.3,15,24.7,19.9
	c4.9,7.1,7.3,13.9,8.5,18.5c1.9-5.8,6.4-15.9,16.5-22c6.3-3.8,12.8-4.8,20.5-6c7.5-1.2,13.9-1.2,18.5-1c1.7,4.2,3.4,9.2,4.5,15
	c0.4,2.3,0.8,4.4,1,6.5c5.4,1.6,13,3.9,22,7c19.8,6.9,43.1,15,64.5,29.5c16.1,10.8,33.7,22.7,45,45.5c12.9,25.9,14.4,57.9,5.7,81.2
	c-6.9,18.5-19.6,41.4-31,53.2c-2.4,2.5-8.6,7.6-15.5,17c-6.5,8.8-11,14.9-13.7,20.2c-5.7-3.5-17.8-9.8-29-13.5
	c-22.5-7.5-42.4-6.6-79-1.5c-33.2,4.6-60.9,10.1-86.5,15.5c-49.9,10.6-49.7,12.2-74,16c-38,6-61,9.5-90.5,4c-21.4-4-45-8.4-64.5-28
	c-29.2-29.4-26.9-70.6-26.5-78.5c2.3-41.3,27.2-68.7,42.5-85.5c21.7-23.9,44.9-36.3,62-45.5C127.6,57.2,148.2,50.2,163.2,46z"/>
<path id="XMLID_51_" class="st1" d="M84.6,200c4.3,2.7,11.4,6.3,20.7,8c14,2.5,26.3,1.4,35.9-1.6c11.5-3.7,20.2-6.8,28-15
	c9-9.5,15.4-27.9,9.5-36.8c-1.3-2-2.8-3.4-5.8-5.4c-13.5-9.3-22.3-4.2-31.5-8.6c-4.1-1.9-5.3-7.7-3.4-11.6
	c2.8-5.9,15.4-6.5,24.1-4.4c3.2,0.8,5.7,1.9,7.3,2.7l17.3-20c-3.7-1.7-9.2-3.8-16-5.3c-8.5-2-18.6-4.3-30.7-1.3
	c-12.8,3.1-21,10.4-24,13.3c-2.2,2.1-10.8,10.9-14,24.7c-1.1,4.8-2,9.9,1,14.8c2.1,3.4,4.9,5.3,9,7.2c8.6,3.9,18.9,5,22,5.3
	c4.1,0.4,6.9,0.5,8.7,2.7c2.2,2.9,0.9,7.2,0.7,8c-2.3,7.4-11.1,9.8-12.1,9.9c-9.4,1.2-19.8-1.5-27.9-9.9L84.6,200z"/>
<path id="XMLID_50_" class="st1" d="M189.2,198.6l-2.1,0.1l24.7-102.8l53.6-4c5.6,0,10.7-0.6,17.8,4.1c2.5,1.6,8.2,6,10.7,14
	c3.1,10.1-1.4,18.5-2.3,20.3c-1,1.9-2.5,4.2-6,7.7c-4.1,4.1-11.5,10.3-23.3,15c3.2,4.3,6.4,8.6,9.5,13l-30.6,12.1l-11.6-17
	l-6.5,24.1"/>
<polygon id="XMLID_49_" class="st1" points="373.9,136.7 430.9,89.7 390.9,87.8 347.6,128 356.2,86.3 322.4,87.8 307.8,156.6 "/>
<polygon id="XMLID_48_" class="st2" points="317.2,222 395.6,221.4 402.9,231.2 325.2,232.5 "/>
<path id="XMLID_47_" class="st3" d="M312,83c-13-7.9-24.2-12.6-32.3-15.5c-8.4-3-13.3-4.1-21.3-8.8c-7-4.1-15.6-9.2-19.3-19
	c-2-5.3-2.2-11.1-2.3-12c-0.1-4.4,0.5-6.7,0.8-13.8c0.1-3.5,0.1-6.4,0-8.3c3.5,0,8.9,0,15.5-0.3c12.1-0.4,13.8-0.7,18.6,0.4
	c8,1.7,13.9,5.3,16.6,7.4c5.6,4.2,8.9,8.5,11,11.5c2.2,3,5.7,8.4,8.3,15.8c0.7,1.9,1.4,4.1,2,7.3c0.9,4.8,0.6,7.5,0.8,14.5
	c0.1,2.3,0.2,5.6,0.5,9.8L312,83z"/>
<path id="XMLID_46_" class="st4" d="M184.6,220"/>
<path id="XMLID_45_" class="st5" d="M236,203.3c-12.6-2.2-35-2-56.3,0.8c-3.2,0.4-8.1,1-14.7,2.2c-10.7,2-20.4,5.3-30.3,8.7
	c-10,3.4-18.4,6.6-24.4,9c0,11.7,0,23.3,0,35c8-5.6,40.4-28,74.1-39c2.2-0.7,19.4-6.2,38.1-8c4.4-0.4,11.9-0.9,20.4-0.1
	c6.3,0.6,11.1,1.6,12.6,2c3.7,0.9,6,2,6.2,1.7c0.3-0.7-6.4-5.3-13.9-8.6C244,205.3,238.7,203.7,236,203.3"/>
<path id="XMLID_44_" class="st4" d="M178.1,222.1"/>
<path id="XMLID_43_" class="st4" d="M368.5,30.3"/>
<path id="XMLID_42_" class="st3" d="M367.8,21.1c-0.5-2.5-1.1-4.5-1.6-5.9c-5.4,0-9.6,0.1-12.5,0.3c-2.4,0.1-4.7,0.2-7.5,0.5
	c-2,0.2-3.6,0.4-4,0.5c-5.4,0.9-12.7,7.2-17.8,14.5c-2.1,3-6.1,9.4-8,18.5c-1.1,5.2-1.1,9.1-1,16c0.1,7.5,0.7,13.7,1.3,18
	c1.2-1.1,2.9-2.6,5-4.3c3.1-2.4,5.9-4.2,9.8-6.5c5.7-3.4,10.5-5.8,13-7c10.4-5.1,11.9-4.9,15-7.8c4.1-3.7,5.7-8,7-11.3
	C370.7,35.9,368.8,25.8,367.8,21.1z"/>
<path id="XMLID_41_" class="st4" d="M395.6,220.7"/>
<polygon id="XMLID_40_" class="st2" points="307.2,209 385.6,209 392.9,218.5 315.5,219.4 "/>
<polygon id="XMLID_39_" class="st2" points="296.2,194 374.1,194 382.9,204.8 305.1,205.7 "/>
<path id="XMLID_38_" class="st4" d="M238.4,49"/>
<path id="XMLID_37_" class="st1" d="M248.6,57.8C159.1,73.2,95.4,104.1,71.2,128c-17.1,16.8-34,49.3-36,58.5
	c-1.7,8-2.6,14.7-2.6,22.9c-0.1,17.6,6.2,31,10.1,37.1c2.3,3.6,5.6,8.8,11,14c15.9,15.4,36.4,18.2,54.5,20.5
	c17.2,2.2,30.3,1.3,42.5,0.5c7.3-0.5,20.7-1.7,66-11c36.7-7.5,36.8-8.6,57.5-12c16.9-2.8,31.9-4.5,49-6.5c10.1-1.2,19.9-2.1,39.5-4
	c0,0,30.9-3,54.5,0c0,0,5.3,0.7,13,3.5c5.7,2.1,8.4,3.9,10.5,6.5c1.3,1.7,3.6,3.6,4,4.8c1.6-3.1,2.5-7.8,6-12.8
	c7.7-10.9,15.1-16.9,19-20.5c13.1-12.3,17.6-28.7,20.5-39c2.1-7.5,10.9-39.3-6-67c-5.8-9.5-12.3-14.9-21.5-22.5
	c-16-13.2-30.7-19.5-45-25.5c-13-5.4-31.2-11.8-54-16c1.5-0.9,5.1-3.3,7.5-8c2.2-4.3,2-9.3,1.8-11.1c61.7,17.1,100,45.2,110,55.3
	c9.7,9.9,16.8,23.6,16.8,23.6c8.2,13.2,12,35,8.1,60.4c-4.3,30.9-24.1,52.2-27.4,55.6c-3.1,3.2-9.8,9.5-18.7,20
	c-6.6,7.7-11.3,16.2-14.4,20.5c-3.5-1.9-9.5-6.7-16.9-9.2c-13.9-4.8-26.1-5.8-35.3-6c-49.4-1.1-112,12-112,12
	c-38.7,11-71.5,17.4-95.3,21.3c-67,11-89.9,6.7-98.7,5.3c-20.8-3.5-51.3-12.8-70-41.3c-5.1-9.8-12.6-27.6-12.5-50.5
	c0.2-34.1,17.4-58.1,26.5-70.5c13-17.6,28-31.4,54.5-48c17.3-10.8,31.7-17.7,37.1-20.2c42.7-19.7,87-26.4,110.9-29.1
	c0.2,2,0.8,6.5,4.1,11C242.9,55,246.7,57,248.6,57.8z"/>
<polygon id="XMLID_36_" class="st6" points="223,185.2 189.2,198.6 219.8,197 "/>
<path id="XMLID_35_" class="st6" d="M241.2,178.1l30.6-12.1l0,0.3c16.8,22.8,33.6,45.8,50.5,68.8h-42.3l-38.7-56.7"/>
<path id="XMLID_34_" class="st1" d="M241.2,178.1"/>
<path id="XMLID_33_" class="st1" d="M223,185.2"/>
<path id="XMLID_31_" class="st1" d="M373.9,136.7"/>
<path id="XMLID_29_" class="st0" d="M232.2,139.8c5-0.5,9-1.7,11.7-2.7c4.3-1.6,6.9-3.4,8-4.2c1.5-1.1,3.1-2.3,4.7-4.3
	c0.9-1.3,2.1-2.9,2.5-5.3c0.1-0.9,0.5-3.3-0.7-5.3c-1-1.8-3-2.8-7.2-3.5c-3.5-0.6-9-1.2-16,0L232.2,139.8z"/>
<path id="XMLID_21_" class="st1" d="M373.9,136.7"/>
<polyline id="XMLID_2_" class="st6" points="373.9,136.9 450.2,233 408.9,233 342.2,149.4 334.2,191 300.6,191 307.8,156.8 
	373.9,136.8 307.8,156.8 "/>
<path id="XMLID_1_" class="st1" d="M255.9,61.3"/>
</svg>
